Coordinates
version=1
nRows=8
nColumns=40
inDegrees=yes

Units are S.I. units (second, meters, Newtons, ...)
Angles are in degrees.

endheader
time	pelvis_tilt	pelvis_list	pelvis_rotation	pelvis_tx	pelvis_ty	pelvis_tz	hip_flexion_r	hip_adduction_r	hip_rotation_r	knee_angle_r	knee_angle_r_beta	ankle_angle_r	subtalar_angle_r	mtp_angle_r	hip_flexion_l	hip_adduction_l	hip_rotation_l	knee_angle_l	knee_angle_l_beta	ankle_angle_l	subtalar_angle_l	mtp_angle_l	lumbar_extension	lumbar_bending	lumbar_rotation	arm_flex_r	arm_add_r	arm_rot_r	elbow_flex_r	pro_sup_r	wrist_flex_r	wrist_dev_r	arm_flex_l	arm_add_l	arm_rot_l	elbow_flex_l	pro_sup_l	wrist_flex_l	wrist_dev_l
      0.00000000	    -10.26879906	     -1.96967021	     -0.72359415	     -1.88300872	      0.85273288	     -0.39334953	     35.28760898	      1.36339504	    -12.70984998	    -40.61265464	     -0.70882454	      5.14027300	     -1.48501104	     -0.07503593	     17.49651609	      2.37872535	      4.03279453	    -93.34506227	     -1.62917868	    -12.81416269	     19.05205358	     23.06188616	    -11.71930409	      4.20826668	     -6.75074996	    -21.51382834	    -21.82670092	     -1.58661357	     85.93382217	     89.95437384	      0.00000000	      0.00000000	     -9.10014471	     22.00228687	    -10.58743869	     91.80726615	     89.95437384	      0.00000000	      0.00000000
      0.01000000	    -10.18170539	     -2.28254501	     -2.02033430	     -1.83937167	      0.84761953	     -0.39284093	     32.86902226	      2.57811553	    -11.46120324	    -42.39158623	     -0.73987275	      9.25682198	     -1.97063241	     -1.12438277	     22.85109084	      3.44049265	      4.58672294	    -98.64448281	     -1.72167101	    -10.91934556	     19.12383149	     22.84662291	    -11.92602098	      4.81541563	     -3.51991063	    -18.69865017	    -20.80753027	     -0.05853291	     87.07778077	     89.95437384	      0.00000000	      0.00000000	    -11.06364696	     22.10799974	     -9.57546683	     86.92410038	     89.95437384	      0.00000000	      0.00000000
      0.02000000	     -9.91551446	     -2.41162078	     -3.23021982	     -1.79625050	      0.84360798	     -0.39194116	     29.95409218	      3.69574183	     -9.61211941	    -43.60319208	     -0.76101927	     12.79540843	     -2.87019117	     -2.05123413	     28.56340522	      4.33497226	      4.83830506	   -102.92151257	     -1.79631927	     -9.78723331	     19.17294968	     22.64741495	    -12.51911099	      5.03356763	     -0.40360955	    -15.51216094	    -19.62956590	      1.54741705	     88.16271452	     89.95437384	      0.00000000	      0.00000000	    -13.14938352	     22.48028017	     -8.10054219	     82.78554999	     89.95437384	      0.00000000	      0.00000000
      0.03000000	     -9.70735083	     -2.54324651	     -4.40670775	     -1.75314573	      0.84067757	     -0.39089479	     26.76541204	      4.55040236	     -8.37869678	    -44.25531511	     -0.77240096	     13.89148544	     -5.86281050	     -6.61105287	     34.48184464	      5.25527444	      4.78698002	   -106.26514873	     -1.85467673	     -8.01644726	     19.21884281	     24.21262532	    -13.23055042	      5.09166599	      2.44523441	    -12.01350090	    -18.64026239	      3.46294066	     89.55920962	     89.95437384	      0.00000000	      0.00000000	    -15.41885076	     22.84539396	     -5.80364724	     79.43109699	     89.95437384	      0.00000000	      0.00000000
      0.04000000	     -9.56198891	     -2.42447164	     -5.23999106	     -1.70896107	      0.83921890	     -0.39098429	     23.01557357	      4.67352257	     -7.03317529	    -44.11721874	     -0.76999072	     15.47391246	     -5.71909215	     -7.08244481	     40.44741142	      5.61028444	      4.48514283	   -108.30790673	     -1.89032958	     -6.33817435	     19.28634280	     23.76481180	    -13.81354596	      4.86042669	      4.68687215	     -8.44319281	    -17.80889446	      5.58879772	     91.21568720	     89.95437384	      0.00000000	      0.00000000	    -18.27565418	     23.08259060	     -2.64370820	     77.05920662	     89.95437384	      0.00000000	      0.00000000
      0.05000000	    -10.15702776	     -1.69922989	     -6.87994986	     -1.66532501	      0.83779149	     -0.38933218	     20.00485622	      4.34573543	     -4.82617885	    -43.38893178	     -0.75727972	     16.38998493	     -5.32203363	     -7.53653129	     47.03580047	      6.16001192	      4.96212024	   -109.12371909	     -1.90456819	     -5.58347576	     19.36054107	     24.02579550	    -13.57203346	      3.76707719	      7.36882887	     -4.99390971	    -16.88159183	      7.66499917	     93.39245495	     89.95437384	      0.00000000	      0.00000000	    -21.53025345	     23.41216058	      1.13719296	     75.74812546	     89.95437384	      0.00000000	      0.00000000
      0.06000000	    -10.38970618	     -0.54881922	     -7.73199457	     -1.61947353	      0.83796286	     -0.38919659	     16.21709901	      2.98685989	     -2.97760173	    -41.93665164	     -0.73193265	     16.31458879	     -5.02080931	     -7.91579300	     52.69572489	      5.71945243	      5.18748217	   -108.69069727	     -1.89701053	     -4.72290829	     19.40162712	     24.30339266	    -13.32273705	      2.31763913	      9.26392920	     -2.19209229	    -15.80835375	      9.33754028	     96.04975870	     89.95437384	      0.00000000	      0.00000000	    -24.81351577	     23.99266606	      4.52461177	     74.95081418	     89.95437384	      0.00000000	      0.00000000
      0.07000000	    -10.48472066	      1.10689671	     -8.21227368	     -1.57246119	      0.83932131	     -0.38961020	     12.22024894	      0.66329153	     -1.65519287	    -39.93912626	     -0.69706925	     15.02337725	     -3.89349171	     -8.87537169	     57.66263678	      4.70426957	      5.84959634	   -106.98796433	     -1.86729224	     -4.08870985	     19.43875510	     25.38848748	    -12.98285651	      0.27688518	     10.63941608	      0.14103563	    -14.51084232	     10.57851954	     99.01939024	     89.95437384	      0.00000000	      0.00000000	    -28.05742247	     24.65382875	      7.93129256	     75.02911557	     89.95437384	      0.00000000	      0.00000000
